<svg xmlns="http://www.w3.org/2000/svg" xmlns:xlink="http://www.w3.org/1999/xlink" width="101" height="101" viewBox="0 0 101 101"><defs><filter id="a" x="0" y="0" width="101" height="101" filterUnits="userSpaceOnUse"><feOffset dy="2" input="SourceAlpha"/><feGaussianBlur stdDeviation="10" result="b"/><feFlood flood-opacity="0.102"/><feComposite operator="in" in2="b"/><feComposite in="SourceGraphic"/></filter></defs><g transform="translate(-1070 -4413)"><g transform="matrix(1, 0, 0, 1, 1070, 4413)" filter="url(#a)"><path d="M20.5,41A20.5,20.5,0,1,0,0,20.5,20.5,20.5,0,0,0,20.5,41Z" transform="translate(30 28)" fill="#fff"/></g><g transform="translate(1112.931 4453.069)"><path d="M13.656,0H2.344A2.347,2.347,0,0,0,0,2.344V13.656A2.346,2.346,0,0,0,2.344,16H13.656A2.346,2.346,0,0,0,16,13.656V2.344A2.346,2.346,0,0,0,13.656,0Zm1.406,13.656a1.408,1.408,0,0,1-1.406,1.406H2.344A1.408,1.408,0,0,1,.938,13.656V2.344A1.408,1.408,0,0,1,2.344.938H13.656a1.408,1.408,0,0,1,1.406,1.406Z"/><g transform="translate(12.219 1.906)"><path d="M.938,0a.938.938,0,1,0,.938.938A.939.939,0,0,0,.938,0Z"/></g><g transform="translate(3.781 3.781)"><path d="M4.219,0A4.219,4.219,0,1,0,8.438,4.219,4.223,4.223,0,0,0,4.219,0Zm0,7.5A3.281,3.281,0,1,1,7.5,4.219,3.285,3.285,0,0,1,4.219,7.5Z"/></g></g></g></svg>